<svg xmlns="http://www.w3.org/2000/svg" xmlns:xlink="http://www.w3.org/1999/xlink" width="280" zoomAndPan="magnify" viewBox="0 0 210 209.999996" height="280" preserveAspectRatio="xMidYMid meet" version="1.0"><defs><g/><clipPath id="8e342e6a03"><path d="M 8 34 L 113.761719 34 L 113.761719 145 L 8 145 Z M 8 34 " clip-rule="nonzero"/></clipPath><clipPath id="0c33133dfc"><rect x="0" width="114" y="0" height="166"/></clipPath><clipPath id="3e829eb013"><rect x="0" width="77" y="0" height="179"/></clipPath></defs><rect x="-21" width="252" fill="#ffffff" y="-21" height="251.999995" fill-opacity="1"/><rect x="-21" width="252" fill="#ffffff" y="-21" height="251.999995" fill-opacity="1"/><g transform="matrix(1, 0, 0, 1, 66, 5)"><g clip-path="url(#0c33133dfc)"><g clip-path="url(#8e342e6a03)"><g fill="#b88917" fill-opacity="1"><g transform="translate(0.702449, 119.737618)"><g><path d="M 30.46875 2.3125 C 47.757812 8.320312 60.726562 12.40625 69.375 14.5625 C 78.03125 16.71875 85.46875 17.796875 91.6875 17.796875 C 97.90625 17.796875 104.75 16.375 112.21875 13.53125 L 112.828125 14.5 C 102.921875 21.320312 92.929688 24.734375 82.859375 24.734375 C 72.535156 24.734375 60.796875 21.523438 47.640625 15.109375 C 37.484375 10.066406 31.1875 7.019531 28.75 5.96875 C 20.0625 2.070312 12.914062 0.0820312 7.3125 0 L 7.3125 -1.21875 L 8.890625 -1.21875 C 11.003906 -1.21875 12.8125 -1.945312 14.3125 -3.40625 C 15.820312 -4.875 16.613281 -6.703125 16.6875 -8.890625 L 16.6875 -76.390625 C 16.613281 -78.503906 15.820312 -80.3125 14.3125 -81.8125 C 12.8125 -83.320312 11.003906 -84.078125 8.890625 -84.078125 L 7.3125 -84.078125 L 7.3125 -85.296875 L 34 -85.296875 L 34 -84.078125 L 32.40625 -84.078125 C 30.300781 -84.078125 28.472656 -83.320312 26.921875 -81.8125 C 25.378906 -80.3125 24.609375 -78.503906 24.609375 -76.390625 L 24.609375 -6.09375 C 24.609375 -4.632812 24.6875 -3.515625 24.84375 -2.734375 C 25.007812 -1.960938 25.539062 -1.085938 26.4375 -0.109375 C 27.332031 0.859375 28.675781 1.664062 30.46875 2.3125 Z M 30.46875 2.3125 "/></g></g></g></g></g></g><g transform="matrix(1, 0, 0, 1, 86, 31)"><g clip-path="url(#3e829eb013)"><g fill="#282120" fill-opacity="1"><g transform="translate(0.656249, 130.588819)"><g><path d="M 9.78125 -1.34375 C 12.101562 -1.34375 14.085938 -2.164062 15.734375 -3.8125 C 17.390625 -5.46875 18.265625 -7.457031 18.359375 -9.78125 L 18.359375 -84.015625 C 18.265625 -86.328125 17.390625 -88.3125 15.734375 -89.96875 C 14.085938 -91.625 12.101562 -92.453125 9.78125 -92.453125 L 8.03125 -92.453125 L 8.03125 -93.78125 L 37.375 -93.78125 L 37.375 -92.453125 L 35.640625 -92.453125 C 32.421875 -92.453125 29.960938 -91.066406 28.265625 -88.296875 C 27.460938 -86.953125 27.0625 -85.523438 27.0625 -84.015625 L 27.0625 -4.15625 L 46.21875 -4.15625 C 52.832031 -4.15625 57.878906 -5.628906 61.359375 -8.578125 C 64.847656 -11.523438 67.753906 -15.898438 70.078125 -21.703125 L 71.40625 -21.703125 L 63.640625 0 L 8.03125 0 L 8.03125 -1.34375 Z M 9.78125 -1.34375 "/></g></g></g></g></g></svg>